<svg width="638" height="200" viewBox="0 0 638 200" fill="none" xmlns="http://www.w3.org/2000/svg">
<path d="M625.959 51.0882C625.42 41.5013 623.233 34.0588 619.399 28.7608C615.565 23.4627 610.863 20.8137 605.292 20.8137C601.218 20.8137 597.654 22.2013 594.599 24.9764C591.574 27.7516 589.207 31.5674 587.5 36.424C585.823 41.2805 584.984 46.7993 584.984 52.9803C584.984 58.1522 585.568 62.5988 586.736 66.32C587.934 69.9782 589.462 73.0372 591.319 75.497C593.176 77.8937 595.123 79.8805 597.16 81.4573C599.196 82.971 601.068 84.2009 602.776 85.147L612.121 90.445C614.517 91.7695 617.183 93.5986 620.118 95.9322C623.084 98.2659 625.914 101.451 628.61 105.488C631.335 109.461 633.582 114.57 635.349 120.814C637.116 127.058 638 134.721 638 143.804C638 154.274 636.697 163.734 634.091 172.186C631.515 180.638 627.741 187.355 622.769 192.338C617.827 197.32 611.821 199.812 604.753 199.812C598.163 199.812 592.457 197.572 587.635 193.094C582.842 188.616 579.068 182.372 576.313 174.362C573.587 166.352 572.044 157.049 571.685 146.453H583.187C583.486 153.769 584.654 159.824 586.691 164.617C588.758 169.348 591.364 172.88 594.509 175.214C597.684 177.484 601.098 178.619 604.753 178.619C609.006 178.619 612.825 177.169 616.209 174.267C619.594 171.303 622.275 167.203 624.252 161.968C626.229 156.67 627.217 150.489 627.217 143.425C627.217 136.992 626.363 131.757 624.656 127.72C622.949 123.684 620.702 120.404 617.917 117.881C615.131 115.358 612.121 113.151 608.886 111.259L597.564 104.447C590.375 100.095 584.684 93.8824 580.491 85.8092C576.298 77.736 574.201 67.1715 574.201 54.1156C574.201 43.2673 575.594 33.8065 578.379 25.7333C581.195 17.597 584.969 11.2899 589.701 6.81176C594.464 2.27059 599.78 0 605.651 0C611.582 0 616.853 2.23905 621.466 6.71715C626.079 11.1322 629.733 17.1871 632.429 24.8818C635.154 32.5766 636.592 41.312 636.742 51.0882H625.959Z" fill="white"/>
<path d="M556.904 99.5273C556.904 119.963 555.152 137.623 551.648 152.508C548.143 167.393 543.336 178.872 537.226 186.945C531.115 195.018 524.136 199.055 516.289 199.055C508.441 199.055 501.462 195.018 495.352 186.945C489.242 178.872 484.434 167.393 480.93 152.508C477.425 137.623 475.673 119.963 475.673 99.5273C475.673 79.0921 477.425 61.432 480.93 46.547C484.434 31.6621 489.242 20.183 495.352 12.1098C501.462 4.0366 508.441 0 516.289 0C524.136 0 531.115 4.0366 537.226 12.1098C543.336 20.183 548.143 31.6621 551.648 46.547C555.152 61.432 556.904 79.0921 556.904 99.5273ZM546.121 99.5273C546.121 82.7502 544.789 68.5906 542.123 57.0485C539.487 45.5063 535.908 36.7709 531.385 30.8421C526.892 24.9134 521.86 21.949 516.289 21.949C510.718 21.949 505.671 24.9134 501.148 30.8421C496.655 36.7709 493.076 45.5063 490.41 57.0485C487.774 68.5906 486.456 82.7502 486.456 99.5273C486.456 116.304 487.774 130.464 490.41 142.006C493.076 153.548 496.655 162.284 501.148 168.213C505.671 174.141 510.718 177.106 516.289 177.106C521.86 177.106 526.892 174.141 531.385 168.213C535.908 162.284 539.487 153.548 542.123 142.006C544.789 130.464 546.121 116.304 546.121 99.5273Z" fill="white"/>
<path d="M396.891 23.4643V2.65063H465.901V23.4643H436.967V196.407H425.825V23.4643H396.891Z" fill="white"/>
<path d="M326.307 196.407V2.65063H381.838V23.4643H337.449V88.9329H378.963V109.747H337.449V175.594H382.557V196.407H326.307Z" fill="white"/>
<path d="M292.835 2.65063H303.977V141.156C303.977 153.518 302.899 164.02 300.742 172.661C298.585 181.302 295.545 187.861 291.621 192.339C287.698 196.817 283.07 199.056 277.739 199.056C272.706 199.056 268.229 197.133 264.305 193.285C260.381 189.375 257.296 183.824 255.049 176.634C252.803 169.444 251.68 160.898 251.68 150.996H262.642C262.642 156.483 263.286 161.276 264.574 165.376C265.892 169.413 267.689 172.566 269.966 174.837C272.242 177.107 274.833 178.243 277.739 178.243C280.943 178.243 283.669 176.823 285.916 173.985C288.162 171.147 289.869 166.984 291.037 161.497C292.236 155.947 292.835 149.166 292.835 141.156V2.65063Z" fill="white"/>
<path d="M238.876 99.5273C238.876 119.963 237.124 137.623 233.619 152.508C230.115 167.393 225.308 178.872 219.197 186.945C213.087 195.018 206.108 199.055 198.26 199.055C190.413 199.055 183.434 195.018 177.324 186.945C171.213 178.872 166.406 167.393 162.901 152.508C159.397 137.623 157.645 119.963 157.645 99.5273C157.645 79.0921 159.397 61.432 162.901 46.547C166.406 31.6621 171.213 20.183 177.324 12.1098C183.434 4.0366 190.413 0 198.26 0C206.108 0 213.087 4.0366 219.197 12.1098C225.308 20.183 230.115 31.6621 233.619 46.547C237.124 61.432 238.876 79.0921 238.876 99.5273ZM228.093 99.5273C228.093 82.7502 226.76 68.5906 224.094 57.0485C221.459 45.5063 217.879 36.7709 213.356 30.8421C208.864 24.9134 203.832 21.949 198.26 21.949C192.689 21.949 187.642 24.9134 183.119 30.8421C178.627 36.7709 175.047 45.5063 172.381 57.0485C169.746 68.5906 168.428 82.7502 168.428 99.5273C168.428 116.304 169.746 130.464 172.381 142.006C175.047 153.548 178.627 162.284 183.119 168.213C187.642 174.141 192.689 177.106 198.26 177.106C203.832 177.106 208.864 174.141 213.356 168.213C217.879 162.284 221.459 153.548 224.094 142.006C226.76 130.464 228.093 116.304 228.093 99.5273Z" fill="white"/>
<path d="M80.3101 196.407V2.65063H111.401C118.589 2.65063 124.49 5.23658 129.103 10.4085C133.715 15.5173 137.13 22.5498 139.346 31.506C141.563 40.4622 142.671 50.6483 142.671 62.0643C142.671 73.4803 141.563 83.6033 139.346 92.4334C137.13 101.263 133.73 108.201 129.148 113.247C124.565 118.23 118.709 120.721 111.58 120.721H86.4204V99.529H111.221C116.133 99.529 120.087 98.0152 123.082 94.9878C126.107 91.9603 128.294 87.6714 129.642 82.1211C131.02 76.5077 131.709 69.8221 131.709 62.0643C131.709 54.3065 131.02 47.5262 129.642 41.7236C128.264 35.921 126.063 31.4429 123.037 28.2893C120.012 25.0727 116.013 23.4643 111.041 23.4643H91.4524V196.407H80.3101ZM123.621 109.368L146.266 196.407H133.326L111.041 109.368H123.621Z" fill="white"/>
<path d="M0 196.407V2.65063H31.0907C38.3093 2.65063 44.2099 5.39426 48.7927 10.8815C53.4053 16.3057 56.8199 23.6536 59.0364 32.9251C61.2529 42.1967 62.3612 52.5404 62.3612 63.9565C62.3612 75.3724 61.2529 85.7478 59.0364 95.0824C56.8499 104.417 53.4653 111.859 48.8825 117.41C44.2998 122.897 38.4291 125.641 31.2704 125.641H8.98576V104.827H30.911C35.8532 104.827 39.8219 103.029 42.8171 99.4343C45.8124 95.8393 47.9839 90.9827 49.3318 84.8648C50.7096 78.6837 51.3985 71.7143 51.3985 63.9565C51.3985 56.1986 50.7096 49.2607 49.3318 43.1427C47.9839 37.0248 45.7974 32.2313 42.7722 28.7624C39.747 25.2303 35.7334 23.4643 30.7313 23.4643H11.1423V196.407H0Z" fill="white"/>
</svg>
